<?xml version="1.0" encoding="UTF-8" standalone="no"?>
<!-- Created with Inkscape (http://www.inkscape.org/) -->

<svg
   version="1.1"
   id="svg2"
   width="1280"
   height="1280"
   viewBox="0 0 1280 1280"
   sodipodi:docname="00421-181097189.png"
   inkscape:version="1.2.2 (732a01da63, 2022-12-09)"
   xmlns:inkscape="http://www.inkscape.org/namespaces/inkscape"
   xmlns:sodipodi="http://sodipodi.sourceforge.net/DTD/sodipodi-0.dtd"
   xmlns="http://www.w3.org/2000/svg"
   xmlns:svg="http://www.w3.org/2000/svg">
  <defs
     id="defs6" />
  <sodipodi:namedview
     id="namedview4"
     pagecolor="#ffffff"
     bordercolor="#000000"
     borderopacity="0.25"
     inkscape:showpageshadow="2"
     inkscape:pageopacity="0.0"
     inkscape:pagecheckerboard="0"
     inkscape:deskcolor="#d1d1d1"
     showgrid="false"
     inkscape:zoom="0.68515625"
     inkscape:cx="639.27024"
     inkscape:cy="639.27024"
     inkscape:window-width="1920"
     inkscape:window-height="1057"
     inkscape:window-x="1912"
     inkscape:window-y="1072"
     inkscape:window-maximized="1"
     inkscape:current-layer="g8" />
  <g
     inkscape:groupmode="layer"
     inkscape:label="Image"
     id="g8">
    <path
       style="fill:#000000"
       d="m 604.5,1097.4956 c -76.33298,-5.9909 -155.22569,-32.8346 -209.75,-71.3687 -9.29025,-6.5657 -9.16639,-5.2074 -1.29097,-14.1566 3.55247,-4.0369 7.4892,-9.2816 8.74829,-11.655 2.93892,-5.53995 2.46247,-5.62616 18.02529,3.2613 37.2944,21.2978 82.20883,38.721 120.93726,46.914 39.05617,8.2623 52.17991,9.5932 94.31016,9.5638 29.57413,-0.021 53.90118,-1.1023 55.25585,-2.4569 0.23078,-0.2308 -1.30289,-2.3663 -3.40814,-4.7456 -12.12177,-13.6994 -41.53252,-46.2468 -52.30301,-57.88116 -6.8886,-7.4411 -20.14993,-21.78416 -29.46962,-31.87346 -9.31968,-10.08931 -17.42701,-18.85114 -18.01627,-19.47074 -0.58926,-0.6196 -4.40614,-4.72654 -8.48195,-9.12654 -4.07581,-4.4 -9.93299,-10.7 -13.01595,-14 -3.08295,-3.3 -20.43737,-22.2 -38.56536,-42 -18.12799,-19.8 -36.80501,-40.05 -41.50449,-45 -4.69947,-4.95 -11.22798,-11.90767 -14.50779,-15.46149 -3.27982,-3.55382 -9.56333,-10.30382 -13.96336,-15 C 453.0999,798.34233 444.07249,788.65 437.43903,781.5 c -26.79051,-28.87662 -38.46338,-41.33355 -44.97878,-48 l -6.84139,-7 -0.74449,-64.5 c -0.63218,-54.77007 -2.31425,-117.03466 -3.40386,-126 -0.16711,-1.375 -0.34134,-2.9003 -0.38718,-3.38955 -0.0458,-0.48925 -1.27011,0.85928 -2.72063,2.99673 -1.45051,2.13745 -3.65308,5.23775 -4.89459,6.88955 -1.24151,1.6518 -5.63291,8.62827 -9.75867,15.50327 -4.12576,6.875 -25.21069,39.13309 -46.85541,71.68465 -21.64472,32.55156 -43.36428,65.40156 -48.26569,73 -4.90142,7.59844 -14.48186,22.36535 -21.28987,32.81535 -6.80801,10.45 -17.89006,27.55 -24.62677,38 -17.38682,26.97046 -20.01307,30.80293 -21.4217,31.26057 -3.29998,1.07209 2.52481,-8.90074 28.5609,-48.90012 9.17901,-14.10175 20.9641,-32.23454 26.1891,-40.29508 5.225,-8.06054 15.48598,-23.74775 22.80218,-34.86045 7.31621,-11.11271 18.10447,-27.62992 23.97393,-36.70492 5.86946,-9.075 13.83347,-21.08529 17.69781,-26.68953 3.86435,-5.60425 12.65108,-18.86189 19.52608,-29.46143 6.875,-10.59955 18.96883,-28.96426 26.87517,-40.81047 7.90634,-11.84621 15.22688,-23.50713 16.26786,-25.91314 l 1.89269,-4.37458 4.73214,4.37458 c 2.60268,2.40601 7.83631,7.97457 11.63029,12.37457 3.79399,4.4 19.12896,21.05 34.07773,37 14.94876,15.95 30.06959,32.24577 33.60184,36.21282 15.05046,16.90309 34.87599,38.40736 42.90986,46.54329 l 8.64627,8.75612 1.14334,9.74489 c 13.07668,111.45523 157.75682,142.34188 219.91367,46.94767 l 7.03393,-10.79521 6.4315,6.29521 c 3.53732,3.46236 10.23641,10.57021 14.88687,15.79521 4.65046,5.225 10.54425,11.75 13.09732,14.5 2.55308,2.75 6.8284,7.53753 9.50074,10.63895 2.67233,3.10142 9.09888,10.30142 14.28123,16 11.20207,12.31794 23.49514,25.89438 31.56568,34.86105 3.21771,3.575 8.81172,9.67883 12.43113,13.56406 3.61941,3.88523 8.36371,9.06023 10.5429,11.5 2.17918,2.43977 9.60418,10.52889 16.5,17.97584 23.42658,25.29889 40.56381,44.25101 70.53784,78.00807 6.05,6.81357 13.47852,15.10264 16.50782,18.42017 7.21817,7.90493 13.37431,15.50209 12.88345,15.89917 -0.2152,0.17409 -7.59127,6.58197 -16.39127,14.23973 -68.9568,60.00626 -151.13109,101.76156 -225.32951,114.49696 -29.68397,5.095 -34.70991,5.754 -56.67049,7.4309 -22.51529,1.7192 -52.79618,1.7034 -75,-0.039 z M 725.57809,930.13807 c 6.46992,-37.55772 18.57559,-51.50192 52.59037,-60.57745 14.65795,-3.91091 14.35724,-6.40134 -1.09407,-9.06078 -29.42478,-5.0645 -45.16353,-21.77959 -49.90412,-52.99984 l -1.67027,-11 -3.75804,-0.31084 c -4.34225,-0.35917 -3.91428,-1.24586 -6.16519,12.77347 -4.51047,28.09262 -20.1448,43.72349 -52.07677,52.06526 -15.28887,3.994 -16.73375,5.48065 -7.43171,7.64658 14.82862,3.45277 18.98164,4.7311 25.51162,7.85264 20.05384,9.58639 28.01907,20.14847 34.00944,45.09732 3.40482,14.18047 8.29459,18.34813 9.98874,8.51364 z M 193.57962,780.90738 c -0.90065,-2.25094 -2.9916,-8.88844 -4.64655,-14.75 C 114.55064,502.7073 282.00086,228.1504 545.5,181.51847 c 4.95,-0.87601 11.475,-2.03124 14.5,-2.56717 15.45969,-2.73895 43.99655,-5.94605 52.93709,-5.94932 l 5.43709,-0.002 -2.50495,2.75 c -1.37772,1.5125 -3.25555,3.875 -4.17296,5.25 -0.9174,1.375 -6.83207,9.7 -13.14369,18.5 -10.34043,14.41717 -22.86493,32.29435 -40.63398,58 -10.30385,14.90611 -22.64968,32.1725 -33.96347,47.5 -18.51312,25.08089 -35.94112,49.36741 -88.98235,124 -15.04903,21.175 -33.93014,47.275 -41.95802,58 -13.99844,18.70147 -20.01957,27.60864 -39.54526,58.5 -8.78236,13.89447 -30.03358,46.16906 -41.16743,62.52167 -3.19114,4.68691 -10.49278,15.71191 -16.22588,24.5 -5.7331,8.78808 -15.6331,23.92157 -22,33.62997 -6.3669,9.7084 -20.3128,31.0834 -30.99089,47.5 -52.02839,79.98899 -47.09341,73.2846 -49.50568,67.25574 z M 628,705.57229 c -33.63672,-9.33509 -44.697,-56.03751 -19.24318,-81.25496 41.29979,-40.91627 103.33302,16.04833 68.84937,63.22379 C 666.78754,702.34161 644.9545,710.27762 628,705.57229 Z m -71.79431,-144.2732 c -11.66453,-11.76973 -24.12503,-24.97763 -41.2473,-43.72141 -14.9726,-16.39053 -18.83247,-20.68301 -32.8578,-36.54054 -3.63032,-4.10457 -8.58116,-9.624 -11.00185,-12.26541 -5.70149,-6.22134 -14.32451,-5.66283 76.01334,-4.92338 l 79.61208,0.65165 6.98579,7.5 c 3.84218,4.125 9.86674,10.91571 13.38792,15.09047 3.52117,4.17477 10.00213,11.64621 14.40213,16.60322 46.97891,52.92607 49.64159,57.38579 27.73183,46.44798 -39.20863,-19.57378 -83.30025,-14.98772 -116.88478,12.15742 l -8.41198,6.79909 z M 813.99858,438.25 c -7.8e-4,-42.2125 -0.29886,-93.9625 -0.66239,-115 -0.39537,-22.87988 -0.29434,-38.22528 0.25142,-38.18848 0.50181,0.0338 5.18739,5.2578 10.41239,11.60883 5.225,6.35102 13.35044,15.92886 18.05654,21.28408 18.99795,21.61843 16.78034,9.91028 16.94387,89.45736 l 0.12111,58.91179 -5.87859,6.08821 c -7.98029,8.26484 -21.32903,23.23946 -30.16422,33.83821 -4.01174,4.8125 -7.69561,8.75 -8.18639,8.75 -0.51533,0 -0.89292,-32.42534 -0.89374,-76.75 z M 741.3604,466.7592 C 739.68303,464.96664 734.54255,459 729.93713,453.5 725.3317,448 721.09931,443.0065 720.53181,442.40332 719.96432,441.80015 712.975,433.49839 705,423.95497 c -7.975,-9.54342 -23.71063,-28.17492 -34.96807,-41.40332 -36.41864,-42.79488 -61.27671,-71.90563 -66.96806,-78.42485 -3.06013,-3.50527 -8.86952,-10.48027 -12.90976,-15.5 l -7.34588,-9.1268 38.84588,-0.2762 38.84589,-0.27621 4,4.34014 c 2.2,2.38707 7.825,9.00796 12.5,14.71308 4.675,5.70513 10.55264,12.65136 13.06143,15.43607 4.80479,5.33325 49.59129,57.4306 56.43857,65.65147 2.2,2.64133 9.43845,11.2395 16.08545,19.10704 23.08663,27.32586 24.17926,29.30966 18.3631,33.34026 -3.1274,2.16729 -20.49266,20.41678 -35.41999,37.22355 -0.87679,0.98719 -1.77721,0.55514 -4.16816,-2 z"
       id="path172" />
  </g>
</svg>
