<?xml version="1.0" encoding="UTF-8" standalone="no"?>
<!-- Created with Inkscape (http://www.inkscape.org/) -->

<svg
   width="500mm"
   height="500mm"
   viewBox="0 0 500.00001 500"
   version="1.1"
   id="svg5"
   xml:space="preserve"
   inkscape:version="1.2.2 (732a01da63, 2022-12-09)"
   sodipodi:docname="over_bits.svg"
   xmlns:inkscape="http://www.inkscape.org/namespaces/inkscape"
   xmlns:sodipodi="http://sodipodi.sourceforge.net/DTD/sodipodi-0.dtd"
   xmlns="http://www.w3.org/2000/svg"
   xmlns:svg="http://www.w3.org/2000/svg"><sodipodi:namedview
     id="namedview7"
     pagecolor="#ffffff"
     bordercolor="#000000"
     borderopacity="0.25"
     inkscape:showpageshadow="2"
     inkscape:pageopacity="0.0"
     inkscape:pagecheckerboard="0"
     inkscape:deskcolor="#d1d1d1"
     inkscape:document-units="mm"
     showgrid="true"
     inkscape:zoom="0.27622351"
     inkscape:cx="-876.10212"
     inkscape:cy="1187.4442"
     inkscape:window-width="1920"
     inkscape:window-height="1057"
     inkscape:window-x="1912"
     inkscape:window-y="1072"
     inkscape:window-maximized="1"
     inkscape:current-layer="layer1"><sodipodi:guide
       position="65.360318,498.64538"
       orientation="0,806.71546"
       id="guide188"
       inkscape:locked="false" /><sodipodi:guide
       position="0,500"
       orientation="0,1889.7638"
       id="guide274"
       inkscape:locked="false" /><sodipodi:guide
       position="500,500"
       orientation="1889.7638,0"
       id="guide276"
       inkscape:locked="false" /><sodipodi:guide
       position="500,0"
       orientation="0,-1889.7638"
       id="guide278"
       inkscape:locked="false" /><sodipodi:guide
       position="249.92702,493.22691"
       orientation="-1889.7638,0"
       id="guide280"
       inkscape:locked="false" /><inkscape:grid
       type="xygrid"
       id="grid282" /></sodipodi:namedview><defs
     id="defs2"><rect
       x="28.962053"
       y="77.835518"
       width="1089.6973"
       height="240.74701"
       id="rect948" /><rect
       x="374.69656"
       y="401.84848"
       width="363.83578"
       height="693.27917"
       id="rect897" /></defs><g
     inkscape:label="Layer 1"
     inkscape:groupmode="layer"
     id="layer1"
     transform="translate(70.147041,-11.968414)"><path
       style="fill:#000000;stroke-width:0.389771"
       d="m 164.75741,401.44202 c -29.75244,-2.33508 -60.50259,-12.79798 -81.754614,-27.81748 -3.621068,-2.55913 -3.572792,-2.02971 -0.503184,-5.51784 1.38466,-1.57347 2.919081,-3.61771 3.409832,-4.54279 1.145509,-2.15932 0.959803,-2.19292 7.025742,1.27116 14.536314,8.30127 32.042684,15.09234 47.137934,18.28574 15.223,3.22041 20.33825,3.73917 36.75942,3.72771 11.52717,-0.009 21.00916,-0.42965 21.53717,-0.95764 0.09,-0.09 -0.50782,-0.92231 -1.3284,-1.84969 -4.72471,-5.33965 -16.18819,-18.0257 -20.38622,-22.56045 -2.68498,-2.90033 -7.85388,-8.49084 -11.48642,-12.42336 -3.63255,-3.93252 -6.79256,-7.34764 -7.02224,-7.58914 -0.22966,-0.2415 -1.71739,-1.84228 -3.30602,-3.55728 -1.58863,-1.71498 -3.87159,-4.17055 -5.07326,-5.45679 -1.20165,-1.28625 -7.96591,-8.65293 -15.03168,-16.37041 -7.06578,-7.71747 -14.34556,-15.61035 -16.17728,-17.53972 -1.83172,-1.92937 -4.37635,-4.64127 -5.65472,-6.02645 -1.27838,-1.38519 -3.72752,-4.01613 -5.44252,-5.84657 -1.71502,-1.83045 -5.23364,-5.60823 -7.819174,-8.39511 -10.44219,-11.25529 -14.991936,-16.11063 -17.53146,-18.70904 l -2.666583,-2.7284 -0.290181,-25.14026 c -0.2464,-21.34782 -0.902026,-45.61679 -1.326721,-49.11122 -0.06511,-0.53595 -0.133026,-1.13045 -0.15091,-1.32115 -0.01783,-0.1907 -0.495053,0.33492 -1.060428,1.16803 -0.565361,0.83313 -1.423861,2.04152 -1.907767,2.68535 -0.483904,0.64383 -2.195548,3.36306 -3.803652,6.04274 -1.608103,2.67968 -9.82641,15.25296 -18.262909,27.94064 -8.436497,12.68767 -16.902164,25.49168 -18.812595,28.45333 -1.910435,2.96166 -5.644619,8.71738 -8.298186,12.79049 -2.653569,4.07312 -6.973038,10.7382 -9.598816,14.81132 -6.7768891,10.51232 -7.8005271,12.00611 -8.3495711,12.18448 -1.286239,0.41787 0.984098,-3.46925 11.1322281,-19.05987 3.577717,-5.49647 8.17121,-12.56411 10.207767,-15.70588 2.036557,-3.14177 6.035996,-9.2562 8.887643,-13.58761 2.85165,-4.33142 7.056608,-10.76937 9.344357,-14.30654 2.287749,-3.53718 5.391894,-8.21845 6.898104,-10.40283 1.506215,-2.18437 4.931032,-7.35182 7.610711,-11.48322 2.679681,-4.13141 7.393513,-11.28945 10.475178,-15.90676 3.081668,-4.61732 5.934995,-9.16242 6.340745,-10.10022 l 0.737711,-1.70508 1.84446,1.70508 c 1.014457,0.9378 3.054376,3.10827 4.533156,4.82327 1.478795,1.71498 7.455919,8.20469 13.282529,14.42154 5.826604,6.21687 11.720274,12.56848 13.097054,14.11473 5.86624,6.58835 13.59366,14.97011 16.72504,18.14126 l 3.37007,3.41288 0.44565,3.79829 c 5.09692,43.44207 61.48914,55.48082 85.71612,18.29887 l 2.74162,-4.20767 2.50682,2.45369 c 1.37874,1.34954 3.98986,4.11998 5.80249,6.15652 1.81261,2.03656 4.10984,4.57983 5.10496,5.65169 0.99511,1.07188 2.66151,2.93793 3.70312,4.14676 1.04159,1.20884 3.54648,4.0152 5.56641,6.23635 4.36625,4.80119 9.15773,10.0929 12.3034,13.58785 1.25418,1.39343 3.43457,3.77253 4.8453,5.28688 1.41075,1.51436 3.25994,3.53143 4.10933,4.48238 0.84938,0.95095 3.74344,4.10386 6.43123,7.00647 9.13102,9.86079 15.81062,17.24779 27.49365,30.40533 2.35812,2.65574 5.25354,5.88658 6.43429,7.17966 2.81342,3.08111 5.21292,6.04228 5.02159,6.19705 -0.0838,0.0679 -2.95886,2.56547 -6.38884,5.55023 -26.8774,23.38875 -58.90661,39.66378 -87.82706,44.62767 -11.56996,1.98589 -13.52893,2.24274 -22.08854,2.89635 -8.77583,0.6701 -20.57845,0.66394 -29.23287,-0.0152 z m 47.19281,-65.23121 c 2.52179,-14.63893 7.24023,-20.07398 20.49824,-23.61136 5.71324,-1.52436 5.59603,-2.49507 -0.42645,-3.53163 -11.46893,-1.97401 -17.60345,-8.48908 -19.45121,-20.65785 l -0.65102,-4.28749 -1.46478,-0.12109 c -1.69248,-0.13995 -1.52567,-0.4856 -2.40301,4.97874 -1.75806,10.94971 -7.85187,17.04218 -20.29805,20.29356 -5.95917,1.55675 -6.52234,2.1362 -2.89666,2.98042 5.77977,1.34579 7.39849,1.84405 9.94369,3.06073 7.81643,3.7365 10.92104,7.8533 13.25593,17.57765 1.32709,5.52715 3.23299,7.15158 3.89332,3.31838 z M 4.5922999,278.04493 c -0.351046,-0.87735 -1.166039,-3.46447 -1.811092,-5.74914 C -26.210948,169.61043 39.05639,62.595935 141.76088,44.420133 c 1.92937,-0.341444 4.47262,-0.791719 5.65169,-1.000611 6.02575,-1.067564 17.14861,-2.3176 20.63339,-2.318874 l 2.11921,-7.81e-4 -0.97636,1.071873 c -0.53699,0.589529 -1.26891,1.510365 -1.62649,2.0463 -0.35758,0.535936 -2.66294,3.780785 -5.12304,7.210776 -4.03041,5.619403 -8.9121,12.587419 -15.83799,22.606753 -4.01614,5.809978 -8.82819,12.539927 -13.238,18.514157 -7.21589,9.775814 -14.00883,19.242014 -34.682794,48.331684 -5.86568,8.25342 -13.225004,18.42645 -16.354039,22.60676 -5.456203,7.28931 -7.80306,10.76106 -15.41362,22.80163 -3.423116,5.41568 -11.706237,17.9954 -16.045896,24.36917 -1.243816,1.82683 -4.089788,6.12406 -6.324388,9.54942 -2.234598,3.42534 -6.093337,9.32395 -8.574975,13.10801 -2.481637,3.78405 -7.917352,12.11542 -12.079369,18.51414 C 3.6090209,283.00798 5.5325349,280.3948 4.5922999,278.04492 Z M 173.91704,248.68145 c -13.11063,-3.63855 -17.42162,-21.84183 -7.50043,-31.67088 16.09747,-15.94799 40.27627,6.25518 26.83552,24.64284 -4.2168,5.76881 -12.7267,8.86204 -19.33509,7.02804 z m -27.98338,-56.23361 c -4.54651,-4.5875 -9.40327,-9.73556 -16.07704,-17.04135 -5.83589,-6.38856 -7.34036,-8.06165 -12.80704,-14.24247 -1.41499,-1.59984 -3.34469,-3.75116 -4.28821,-4.7807 -2.22227,-2.42491 -5.58328,-2.20721 29.62785,-1.919 l 31.03055,0.254 2.72285,2.92328 c 1.49758,1.60781 3.84579,4.25464 5.21823,5.88184 1.37245,1.6272 3.89855,4.53936 5.61354,6.47147 18.31105,20.62907 19.34889,22.36734 10.80909,18.1041 -15.28242,-7.62931 -32.46807,-5.84179 -45.55837,4.73862 l -3.27877,2.65008 z m 100.48036,-47.96102 c -3.1e-4,-16.45325 -0.11653,-36.62392 -0.25819,-44.823764 -0.1541,-8.91792 -0.11476,-14.89913 0.098,-14.88478 0.19559,0.0131 2.0219,2.04934 4.05846,4.5248 2.03654,2.47544 5.20362,6.20861 7.03793,8.29592 7.40486,8.426274 6.54048,3.862754 6.60423,34.867954 l 0.0471,22.96215 -2.29131,2.37301 c -3.11049,3.2214 -8.31346,9.05808 -11.75716,13.18916 -1.56366,1.87578 -2.99953,3.41052 -3.19082,3.41052 -0.20086,0 -0.34805,-12.63849 -0.34836,-29.91497 z m -28.3123,11.11206 c -0.6538,-0.69869 -2.6574,-3.02431 -4.45247,-5.16806 -1.79507,-2.14374 -3.44473,-4.09006 -3.66593,-4.32516 -0.22119,-0.2351 -2.94543,-3.47089 -6.05386,-7.19065 -3.10842,-3.71975 -9.24173,-10.98179 -13.62956,-16.13784 -14.19495,-16.68021 -23.88391,-28.026774 -26.10225,-30.567794 -1.19275,-1.36626 -3.45709,-4.08491 -5.03186,-6.04146 l -2.86322,-3.55736 15.14104,-0.10766 15.14101,-0.10766 1.55908,1.69166 c 0.85751,0.93042 3.04998,3.51105 4.87216,5.73474 1.82217,2.22371 4.11312,4.93114 5.09097,6.01655 1.87277,2.07875 19.32928,22.384824 21.99816,25.589094 0.85749,1.02951 3.67883,4.38083 6.26965,7.44737 8.99851,10.65085 9.42439,11.42408 7.15741,12.9951 -1.21897,0.84474 -7.98746,7.95788 -13.80571,14.50868 -0.34174,0.38478 -0.6927,0.21637 -1.62462,-0.77955 z"
       id="path172" /><g
       inkscape:label="Layer 1"
       id="layer1-2"
       transform="translate(-14.497124,199.28326)"><text
         xml:space="preserve"
         style="font-style:normal;font-variant:normal;font-weight:normal;font-stretch:normal;font-size:3.88056px;font-family:'OCR A Extended';-inkscape-font-specification:'OCR A Extended';white-space:pre;inline-size:18.4828;display:inline;fill:#483e37;stroke-width:0.264583"
         x="41.654507"
         y="86.695557"
         id="text113" /><text
         xml:space="preserve"
         transform="scale(0.26458333)"
         id="text895"
         style="font-style:normal;font-variant:normal;font-weight:normal;font-stretch:normal;font-size:192px;font-family:'OCR A Extended';-inkscape-font-specification:'OCR A Extended';white-space:pre;shape-inside:url(#rect897);display:inline;fill:#000000" /><path
         id="path7642"
         style="font-style:normal;font-variant:normal;font-weight:normal;font-stretch:normal;font-size:64px;font-family:'OCR A Extended';-inkscape-font-specification:'OCR A Extended';white-space:pre;shape-inside:url(#rect948);display:inline;fill:#000000;stroke-width:1.16632"
         d="m 24.332903,233.63154 c -3.353163,0 -5.795158,1.49436 -7.325951,4.48303 l -6.779236,13.74075 c -0.8990406,1.79808 -1.3485608,3.82697 -1.3485608,6.08672 0,2.25975 0.4495202,4.27651 1.3485608,6.05031 l 6.779236,13.59492 c 0.656054,1.2878 1.627992,2.35695 2.9158,3.20737 1.31211,0.85046 2.782167,1.27567 4.410151,1.27567 3.426061,0 5.855903,-1.49436 7.289506,-4.48304 l 6.74279,-13.59492 c 0.947636,-1.89528 1.421453,-3.91205 1.421453,-6.05031 0,-2.18683 -0.473817,-4.21577 -1.421453,-6.08672 l -6.74279,-13.74075 c -1.4579,-2.98867 -3.887743,-4.48303 -7.289506,-4.48303 z m 32.839221,0 c -0.850441,0 -1.579393,0.30372 -2.186852,0.9112 -0.583158,0.60745 -0.874743,1.34854 -0.874743,2.22329 v 11.26228 l 12.392158,31.7458 c 0.607459,1.53081 1.627993,2.2962 3.061591,2.2962 1.360709,0 2.356945,-0.76539 2.988698,-2.2962 l 12.465051,-31.7458 v -11.26228 c 0,-0.87475 -0.303721,-1.61584 -0.911185,-2.22329 -0.583157,-0.60748 -1.299961,-0.9112 -2.150406,-0.9112 -0.850441,0 -1.579393,0.30372 -2.186848,0.9112 -0.583162,0.60745 -0.874743,1.34854 -0.874743,2.22329 v 10.05951 l -9.330567,23.6909 -9.330563,-23.76381 v -9.9866 c 0,-0.87475 -0.303721,-1.61584 -0.911189,-2.22329 -0.583158,-0.60748 -1.299966,-0.9112 -2.150402,-0.9112 z m 41.951096,0 v 48.43877 h 27.77301 c 0.85045,0 1.5794,-0.29138 2.18685,-0.87475 0.63176,-0.60744 0.94764,-1.33642 0.94764,-2.18684 0,-0.85046 -0.30372,-1.56727 -0.91119,-2.15042 -0.60745,-0.60744 -1.32426,-0.91116 -2.1504,-0.91116 H 105.2464 v -15.01638 h 9.33057 c 0.85044,0 1.56724,-0.30372 2.1504,-0.91121 0.60746,-0.60744 0.91119,-1.34854 0.91119,-2.22329 0,-0.82613 -0.30372,-1.54293 -0.91119,-2.15042 -0.60745,-0.60744 -1.32426,-0.91116 -2.1504,-0.91116 h -9.33057 v -14.90706 h 21.64983 c 0.85045,0 1.5794,-0.30372 2.18685,-0.91116 0.63176,-0.60749 0.94764,-1.3243 0.94764,-2.15043 0,-0.85041 -0.31589,-1.57939 -0.94764,-2.18683 -0.60745,-0.63178 -1.3364,-0.94766 -2.18685,-0.94766 z m 45.15848,0 v 45.37718 c 0,0.85042 0.2916,1.5794 0.87474,2.18684 0.60745,0.58315 1.33642,0.87475 2.18685,0.87475 0.85045,0 1.5794,-0.29138 2.18685,-0.87475 0.63177,-0.60744 0.94764,-1.33642 0.94764,-2.18684 v -23.36288 h 4.41015 l 14.39677,24.78433 c 0.63176,1.09344 1.5551,1.64014 2.77001,1.64014 0.80185,0 1.51866,-0.29138 2.15041,-0.87475 0.63176,-0.60744 0.94763,-1.32425 0.94763,-2.15038 0,-0.63178 -0.1944,-1.26355 -0.58316,-1.89528 l -12.53795,-21.50406 h 3.89989 c 2.52703,0 4.68959,-0.89904 6.48766,-2.69712 1.79808,-1.82237 2.69712,-4.00921 2.69712,-6.56055 v -3.49896 c 0,-2.52701 -0.91119,-4.70173 -2.73357,-6.5241 -1.79807,-1.82237 -3.94848,-2.73357 -6.45121,-2.73357 z m 67.4097,0 v 48.43877 h 18.73402 c 3.37747,0 6.25683,-1.20276 8.63807,-3.60833 2.40554,-2.42981 3.6083,-5.33345 3.6083,-8.71093 v -2.69712 c 0,-3.57187 -1.39715,-6.65775 -4.19146,-9.25767 2.79431,-2.55134 4.19146,-5.63722 4.19146,-9.25767 v -2.5878 c 0,-3.40176 -1.20276,-6.3054 -3.6083,-8.71092 -2.38124,-2.40553 -5.2606,-3.60833 -8.63807,-3.60833 z m 48.22007,0 c -0.85044,0 -1.57939,0.30372 -2.18685,0.9112 -0.58316,0.60745 -0.87474,1.34854 -0.87474,2.22329 0,0.82613 0.29156,1.54294 0.87474,2.15043 0.60746,0.60744 1.33641,0.91116 2.18685,0.91116 h 9.40346 v 36.11952 h -9.40346 c -0.85044,0 -1.57939,0.30372 -2.18685,0.91116 -0.58316,0.58315 -0.87474,1.29996 -0.87474,2.15042 0,0.85042 0.29156,1.5794 0.87474,2.18684 0.60746,0.58315 1.33641,0.87475 2.18685,0.87475 h 24.78432 c 0.82614,0 1.54295,-0.29138 2.1504,-0.87475 0.60746,-0.60744 0.91119,-1.33642 0.91119,-2.18684 0,-0.85046 -0.30372,-1.56727 -0.91119,-2.15042 -0.58316,-0.60744 -1.29997,-0.91116 -2.1504,-0.91116 h -9.25768 v -36.11952 h 9.25768 c 0.82614,0 1.54295,-0.30372 2.1504,-0.91116 0.60746,-0.63178 0.91119,-1.37287 0.91119,-2.22334 0,-0.82613 -0.31589,-1.54293 -0.94764,-2.15038 -0.60745,-0.60748 -1.31211,-0.9112 -2.11395,-0.9112 z m 94.1075,0 c -1.91956,0 -3.55971,0.70468 -4.92041,2.11397 -1.36071,1.38499 -2.04106,3.02513 -2.04106,4.92041 0,1.62797 0.53456,3.13449 1.60369,4.51949 l 22.67036,29.04868 c 0.31589,0.3888 0.47382,0.70464 0.47382,0.94762 0,0.51028 -0.32801,0.76543 -0.98409,0.76543 h -15.23506 c -0.68035,0 -1.25137,-0.21865 -1.71304,-0.65607 -0.43737,-0.43728 -0.65605,-0.98407 -0.65605,-1.64013 0,-0.80184 -0.2916,-1.49436 -0.87474,-2.07752 -0.58316,-0.60744 -1.28782,-0.9112 -2.11396,-0.9112 -2.13825,0 -3.20738,1.14206 -3.20738,3.42609 0,1.99244 0.80184,3.82697 2.40554,5.50357 1.62798,1.6523 3.53541,2.47843 5.72226,2.47843 h 16.51073 c 1.62798,0 3.09804,-0.69252 4.41015,-2.07751 1.3364,-1.385 2.00461,-2.98868 2.00461,-4.81109 0,-1.60368 -0.54671,-3.11017 -1.64014,-4.51949 l -22.70681,-29.04869 c -0.31588,-0.38879 -0.47381,-0.72893 -0.47381,-1.02052 0,-0.46167 0.36446,-0.69248 1.09342,-0.69248 h 15.12572 c 1.21493,0 1.99247,0.6439 2.33265,1.93169 0.36446,1.28784 0.7411,2.17472 1.12987,2.66067 0.38875,0.46166 1.10558,0.69252 2.1504,0.69252 0.75325,0 1.43361,-0.30372 2.04106,-0.91117 0.63176,-0.60748 0.94764,-1.34858 0.94764,-2.22333 0,-2.33261 -0.87474,-4.31292 -2.62422,-5.94094 -1.72519,-1.65226 -3.55972,-2.47843 -5.50358,-2.47843 z m -52.0835,0.0727 v 8.2736 c 0,0.85046 0.29159,1.57939 0.87473,2.18683 0.60746,0.5832 1.33641,0.87475 2.18686,0.87475 0.85043,0 1.56724,-0.29181 2.1504,-0.87475 0.60746,-0.60744 0.91119,-1.33637 0.91119,-2.18683 v -2.15043 h 6.19608 v 39.18111 c 0,0.85042 0.30372,1.57939 0.91119,2.18683 0.60745,0.58316 1.34856,0.87475 2.22329,0.87475 0.82614,0 1.54296,-0.29137 2.15041,-0.87475 0.60745,-0.60744 0.91119,-1.33641 0.91119,-2.18683 v -39.18111 h 6.19607 v 2.22329 c 0,0.82618 0.30373,1.54299 0.91119,2.15043 0.63177,0.60744 1.37286,0.91116 2.2233,0.91116 0.82614,0 1.54295,-0.29138 2.1504,-0.87471 0.60746,-0.60748 0.91119,-1.33641 0.91119,-2.18688 v -8.34646 z m -277.602567,6.05031 c 0.874739,0 1.518649,0.47378 1.931718,1.42145 l 6.414767,12.90241 c 0.607456,1.19064 0.911185,2.45414 0.911185,3.79056 0,1.2635 -0.303721,2.53917 -0.911185,3.82697 l -6.560557,13.04823 c -0.413087,0.80184 -1.00838,1.20276 -1.785928,1.20276 -0.899036,0 -1.518648,-0.40114 -1.85882,-1.20276 l -6.524107,-13.04823 c -0.583162,-1.21488 -0.874743,-2.49056 -0.874743,-3.82697 0,-1.23922 0.291599,-2.50273 0.874743,-3.79056 L 22.291841,241.176 c 0.485967,-0.94767 1.166324,-1.42145 2.041062,-1.42145 z m 193.481677,0 h 12.46506 c 1.67658,0 3.11019,0.60744 4.30081,1.82237 1.2149,1.21493 1.82237,2.67283 1.82237,4.37371 v 2.51485 c 0,1.67659 -0.60747,3.12237 -1.82237,4.33725 -1.21493,1.19064 -2.64854,1.78596 -4.30081,1.78596 h -12.46506 z m -67.4097,0.0727 h 15.52665 c 0.85044,0 1.56724,0.30372 2.1504,0.91116 0.60747,0.5832 0.91119,1.30001 0.91119,2.15043 v 3.57187 c 0,0.85042 -0.30372,1.57939 -0.91119,2.18684 -0.58316,0.58315 -1.29996,0.87475 -2.1504,0.87475 h -15.52665 z m 67.4826,21.17601 h 12.39216 c 1.67658,0 3.11019,0.60748 4.30081,1.82237 1.2149,1.21493 1.82237,2.67283 1.82237,4.37371 v 2.5513 c 0,1.67659 -0.60747,3.12238 -1.82237,4.33726 -1.21493,1.19064 -2.64854,1.78596 -4.30081,1.78596 h -12.39216 z m -36.31996,22.63391 v 3.09804 h 22.90727 v -3.09804 z" /></g></g></svg>
