<?xml version="1.0" encoding="UTF-8" standalone="no"?>
<!-- Created with Inkscape (http://www.inkscape.org/) -->

<svg
   width="88.866928mm"
   height="13.105143mm"
   viewBox="0 0 88.866928 13.105143"
   version="1.1"
   id="svg5"
   inkscape:version="1.2.2 (732a01da63, 2022-12-09)"
   sodipodi:docname="over_bits_title.svg"
   xmlns:inkscape="http://www.inkscape.org/namespaces/inkscape"
   xmlns:sodipodi="http://sodipodi.sourceforge.net/DTD/sodipodi-0.dtd"
   xmlns="http://www.w3.org/2000/svg"
   xmlns:svg="http://www.w3.org/2000/svg">
  <sodipodi:namedview
     id="namedview7"
     pagecolor="#ffffff"
     bordercolor="#000000"
     borderopacity="0.25"
     inkscape:showpageshadow="2"
     inkscape:pageopacity="0.0"
     inkscape:pagecheckerboard="0"
     inkscape:deskcolor="#d1d1d1"
     inkscape:document-units="mm"
     showgrid="false"
     inkscape:zoom="17.678304"
     inkscape:cx="32.469177"
     inkscape:cy="22.513471"
     inkscape:window-width="1920"
     inkscape:window-height="1057"
     inkscape:window-x="1912"
     inkscape:window-y="1072"
     inkscape:window-maximized="1"
     inkscape:current-layer="layer1" />
  <defs
     id="defs2">
    <rect
       x="28.962053"
       y="77.835518"
       width="1089.6973"
       height="240.74701"
       id="rect948" />
    <rect
       x="374.69656"
       y="401.84848"
       width="363.83578"
       height="693.27917"
       id="rect897" />
  </defs>
  <g
     inkscape:label="Layer 1"
     inkscape:groupmode="layer"
     id="layer1"
     transform="translate(-9.358085,-25.046379)">
    <text
       xml:space="preserve"
       style="font-style:normal;font-variant:normal;font-weight:normal;font-stretch:normal;font-size:3.88056px;font-family:'OCR A Extended';-inkscape-font-specification:'OCR A Extended';white-space:pre;inline-size:18.4828;display:inline;fill:#483e37;stroke-width:0.264583"
       x="41.654507"
       y="86.695557"
       id="text113" />
    <text
       xml:space="preserve"
       transform="scale(0.26458333)"
       id="text895"
       style="font-style:normal;font-variant:normal;font-weight:normal;font-stretch:normal;font-size:192px;font-family:'OCR A Extended';-inkscape-font-specification:'OCR A Extended';white-space:pre;shape-inside:url(#rect897);display:inline;fill:#000000" />
    <path
       id="path7642"
       style="font-style:normal;font-variant:normal;font-weight:normal;font-stretch:normal;font-size:64px;font-family:'OCR A Extended';-inkscape-font-specification:'OCR A Extended';white-space:pre;shape-inside:url(#rect948);display:inline;fill:#000000;stroke-width:0.264583"
       d="m 15.258463,25.645041 c -0.760675,0 -1.314649,0.338999 -1.661914,1.016992 l -1.53789,3.117123 c -0.20395,0.4079 -0.305925,0.868164 -0.305925,1.380794 0,0.51263 0.101975,0.97014 0.305925,1.372526 l 1.53789,3.084049 c 0.148828,0.292145 0.369315,0.534681 0.661458,0.727604 0.297656,0.192927 0.631143,0.289388 1.000456,0.289388 0.777212,0 1.328429,-0.338997 1.653646,-1.016992 l 1.529622,-3.084049 c 0.214974,-0.429948 0.322461,-0.887458 0.322461,-1.372526 0,-0.496094 -0.107487,-0.956358 -0.322461,-1.380794 L 16.912109,26.662033 C 16.58138,25.98404 16.030163,25.645041 15.258463,25.645041 Z m 7.449675,0 c -0.192925,0 -0.35829,0.0689 -0.496094,0.206706 -0.132291,0.137803 -0.198438,0.305925 -0.198438,0.504362 v 2.554882 l 2.811198,7.201628 c 0.137804,0.347266 0.369315,0.520898 0.694531,0.520898 0.308681,0 0.53468,-0.173632 0.677995,-0.520898 l 2.827734,-7.201628 v -2.554882 c 0,-0.198437 -0.0689,-0.366559 -0.206705,-0.504362 -0.132291,-0.137804 -0.2949,-0.206706 -0.487826,-0.206706 -0.192925,0 -0.35829,0.0689 -0.496093,0.206706 -0.132292,0.137803 -0.198438,0.305925 -0.198438,0.504362 v 2.282031 l -2.116667,5.374349 -2.116666,-5.390886 v -2.265494 c 0,-0.198437 -0.0689,-0.366559 -0.206706,-0.504362 -0.132291,-0.137804 -0.294901,-0.206706 -0.487825,-0.206706 z m 9.516731,0 v 10.988476 h 6.300391 c 0.192926,0 0.35829,-0.06614 0.496093,-0.198437 0.143317,-0.137803 0.214974,-0.303168 0.214974,-0.496094 0,-0.192923 -0.0689,-0.355534 -0.206706,-0.487825 -0.137802,-0.137803 -0.300413,-0.206706 -0.487825,-0.206706 h -4.927865 v -3.40651 h 2.116667 c 0.192926,0 0.355534,-0.0689 0.487826,-0.206706 0.137803,-0.137803 0.206705,-0.305925 0.206705,-0.504362 0,-0.187412 -0.0689,-0.350023 -0.206705,-0.487826 -0.137803,-0.137803 -0.300414,-0.206705 -0.487826,-0.206705 H 33.613931 V 27.05064 h 4.911329 c 0.192926,0 0.35829,-0.0689 0.496093,-0.206706 0.143317,-0.137803 0.214974,-0.300412 0.214974,-0.487825 0,-0.192925 -0.07166,-0.35829 -0.214974,-0.496094 -0.137803,-0.143316 -0.303167,-0.214974 -0.496093,-0.214974 z m 10.244336,0 v 10.293945 c 0,0.192926 0.06615,0.358291 0.198437,0.496094 0.137803,0.132292 0.30317,0.198437 0.496094,0.198437 0.192926,0 0.358291,-0.06614 0.496094,-0.198437 0.143317,-0.137803 0.214974,-0.303168 0.214974,-0.496094 v -5.299935 h 1.000455 l 3.265951,5.622396 c 0.143317,0.248047 0.352779,0.37207 0.628385,0.37207 0.181901,0 0.344512,-0.06614 0.487826,-0.198437 0.143317,-0.137803 0.214974,-0.300413 0.214974,-0.487826 0,-0.143314 -0.0441,-0.286631 -0.132292,-0.429947 l -2.844271,-4.878256 h 0.884701 c 0.573265,0 1.063847,-0.203948 1.471745,-0.611849 0.4079,-0.413411 0.611849,-0.909505 0.611849,-1.488281 v -0.79375 c 0,-0.573262 -0.206706,-1.066602 -0.620118,-1.480013 -0.407897,-0.41341 -0.895725,-0.620117 -1.463476,-0.620117 z m 15.292091,0 v 10.988476 h 4.249869 c 0.766189,0 1.419379,-0.272851 1.959571,-0.818554 0.545703,-0.551215 0.818554,-1.209919 0.818554,-1.976107 v -0.611849 c 0,-0.810286 -0.316949,-1.510329 -0.950846,-2.10013 0.633897,-0.578776 0.950846,-1.278821 0.950846,-2.10013 v -0.587045 c 0,-0.771699 -0.272851,-1.430404 -0.818554,-1.976106 -0.540192,-0.545702 -1.193382,-0.818555 -1.959571,-0.818555 z m 10.938867,0 c -0.192926,0 -0.358291,0.0689 -0.496094,0.206706 -0.132292,0.137803 -0.198437,0.305925 -0.198437,0.504362 0,0.187413 0.06614,0.350022 0.198437,0.487825 0.137803,0.137804 0.303168,0.206706 0.496094,0.206706 h 2.133203 v 8.193815 h -2.133203 c -0.192926,0 -0.358291,0.0689 -0.496094,0.206706 -0.132292,0.132291 -0.198437,0.294902 -0.198437,0.487825 0,0.192926 0.06614,0.358291 0.198437,0.496094 0.137803,0.132292 0.303168,0.198437 0.496094,0.198437 h 5.622396 c 0.187412,0 0.350022,-0.06614 0.487825,-0.198437 0.137803,-0.137803 0.206706,-0.303168 0.206706,-0.496094 0,-0.192923 -0.0689,-0.355534 -0.206706,-0.487825 -0.132292,-0.137803 -0.294902,-0.206706 -0.487825,-0.206706 H 72.222428 V 27.05064 h 2.100131 c 0.187412,0 0.350022,-0.0689 0.487825,-0.206706 0.137803,-0.143315 0.206706,-0.311437 0.206706,-0.504361 0,-0.187413 -0.07166,-0.350023 -0.214974,-0.487826 -0.137803,-0.137804 -0.297656,-0.206706 -0.479557,-0.206706 z m 21.348567,0 c -0.435459,0 -0.807532,0.159853 -1.116211,0.479558 -0.308681,0.314192 -0.463021,0.686264 -0.463021,1.11621 0,0.369314 0.121267,0.711068 0.363803,1.025261 l 5.142838,6.589778 c 0.07166,0.08819 0.107487,0.159853 0.107487,0.214974 0,0.115755 -0.07441,0.173633 -0.223242,0.173633 h -3.45612 c -0.154339,0 -0.283877,-0.04961 -0.388607,-0.148828 -0.09922,-0.09922 -0.148828,-0.223242 -0.148828,-0.37207 0,-0.181902 -0.06615,-0.338998 -0.198437,-0.47129 -0.132292,-0.137802 -0.292145,-0.206705 -0.479558,-0.206705 -0.485068,0 -0.727604,0.259072 -0.727604,0.777213 0,0.451996 0.181901,0.868164 0.545703,1.248503 0.369314,0.374827 0.802019,0.562239 1.298112,0.562239 h 3.745508 c 0.369313,0 0.7028,-0.157096 1.000456,-0.471289 0.303167,-0.314192 0.454752,-0.677994 0.454752,-1.091406 0,-0.363802 -0.124023,-0.705556 -0.37207,-1.02526 l -5.151107,-6.589779 c -0.07166,-0.08819 -0.107487,-0.165364 -0.107487,-0.23151 0,-0.10473 0.08268,-0.157097 0.248047,-0.157097 h 3.431315 c 0.275609,0 0.451996,0.146074 0.529167,0.438217 0.08268,0.292145 0.168122,0.493336 0.256315,0.60358 0.08819,0.10473 0.250804,0.157097 0.487826,0.157097 0.170875,0 0.325218,-0.0689 0.46302,-0.206706 0.143317,-0.137803 0.214974,-0.305925 0.214974,-0.504362 0,-0.529165 -0.198437,-0.978408 -0.595312,-1.347721 -0.391364,-0.374826 -0.807532,-0.56224 -1.248503,-0.56224 z m -11.815299,0.01654 v 1.876887 c 0,0.192927 0.06615,0.358291 0.198437,0.496094 0.137803,0.132292 0.303168,0.198438 0.496094,0.198438 0.192924,0 0.355534,-0.06615 0.487826,-0.198438 0.137803,-0.137803 0.206705,-0.303167 0.206705,-0.496094 V 27.05064 h 1.405599 v 8.888346 c 0,0.192926 0.0689,0.358291 0.206706,0.496094 0.137803,0.132292 0.305925,0.198437 0.504362,0.198437 0.187412,0 0.350023,-0.06614 0.487826,-0.198437 0.137802,-0.137803 0.206705,-0.303168 0.206705,-0.496094 V 27.05064 h 1.405599 v 0.504362 c 0,0.187412 0.0689,0.350023 0.206706,0.487825 0.143317,0.137803 0.311436,0.206706 0.504362,0.206706 0.187412,0 0.350022,-0.06615 0.487825,-0.198437 0.137803,-0.137803 0.206706,-0.303168 0.206706,-0.496094 v -1.893424 z m -62.974968,1.372526 c 0.198437,0 0.34451,0.107486 0.438216,0.32246 l 1.455209,2.926954 c 0.137803,0.270094 0.206705,0.556728 0.206705,0.859895 0,0.286631 -0.0689,0.576022 -0.206705,0.868164 l -1.488282,2.960026 c -0.09371,0.181901 -0.228754,0.272852 -0.405143,0.272852 -0.203949,0 -0.34451,-0.09095 -0.421679,-0.272852 L 13.356771,32.01158 c -0.132292,-0.275605 -0.198438,-0.564996 -0.198438,-0.868164 0,-0.281119 0.06615,-0.567751 0.198438,-0.859895 l 1.438671,-2.926954 c 0.110243,-0.214974 0.264584,-0.32246 0.463021,-0.32246 z m 43.891895,0 h 2.827735 c 0.380338,0 0.705556,0.137805 0.975651,0.413411 0.275605,0.275608 0.413411,0.606338 0.413411,0.992187 v 0.570508 c 0,0.380339 -0.137806,0.708314 -0.413411,0.983919 -0.275609,0.270095 -0.600827,0.405144 -0.975651,0.405144 h -2.827735 z m -15.292091,0.01654 h 3.522266 c 0.192926,0 0.355534,0.0689 0.487825,0.206706 0.137806,0.132291 0.206706,0.294902 0.206706,0.487825 v 0.810287 c 0,0.192926 -0.0689,0.35829 -0.206706,0.496093 -0.132291,0.132292 -0.294899,0.198438 -0.487825,0.198438 h -3.522266 z m 15.308628,4.803841 h 2.811198 c 0.380338,0 0.705556,0.137806 0.975651,0.413411 0.275605,0.275609 0.413411,0.606338 0.413411,0.992188 v 0.578776 c 0,0.380339 -0.137806,0.708313 -0.413411,0.983919 -0.275609,0.270095 -0.600827,0.405143 -0.975651,0.405143 h -2.811198 z m -8.239292,5.13457 v 0.7028 h 5.196583 v -0.7028 z" />
  </g>
</svg>
